<svg xmlns="http://www.w3.org/2000/svg" viewBox="0 0 861.58 76.03"><defs><style>.cls-1{fill:#fff;}</style></defs><g id="Layer_2" data-name="Layer 2"><g id="Layer_1-2" data-name="Layer 1"><path class="cls-1" d="M235.14,69.55V47.82h-8.26v-2.9h19.89v2.9h-8.26V69.55Z"/><path class="cls-1" d="M250,45h3.24V55a6.26,6.26,0,0,1,5.56-2.83c1.81,0,4.4.65,5.39,2.73.34.68.58,1.5.58,4V69.55h-3.27V59.42c0-1.54,0-4.85-3.69-4.85a4.42,4.42,0,0,0-4,2.29,8.06,8.06,0,0,0-.55,3.61v9.08H250Z"/><path class="cls-1" d="M272.8,61.57c-.07,3.54,1.4,6.17,4.91,6.17a3.73,3.73,0,0,0,4-3.55h3.2a5.75,5.75,0,0,1-1.46,3.58c-.75.86-2.46,2.29-5.9,2.29-5.39,0-7.95-3.34-7.95-8.77,0-3.37.68-6.17,3.38-8A8.2,8.2,0,0,1,277.68,52c7.67,0,7.5,6.79,7.44,9.59Zm9-2.26c0-1.63-.27-5-4.23-5-2.08,0-4.6,1.26-4.67,5Z"/><path class="cls-1" d="M302.89,44.92V60.17c0,2.62.58,3.72,1.09,4.43A6.75,6.75,0,0,0,309.61,67c6.65,0,6.65-5.22,6.65-7V44.92h3.31V60.1a10,10,0,0,1-2,6.55c-2.42,3-6.18,3.41-7.95,3.41-2.32,0-6.41-.65-8.7-3.92-.75-1.09-1.43-2.53-1.43-6.21v-15Z"/><path class="cls-1" d="M326,54.4l0-2h3.2l0,2.77c.37-.72,1.6-3.11,5.49-3.11,1.54,0,6.21.58,6.21,5.84V69.55h-3.28V58.67a3.86,3.86,0,0,0-.92-2.94,4.41,4.41,0,0,0-3-1.16c-2.32,0-4.47,1.68-4.47,5.12v9.86H326Z"/><path class="cls-1" d="M346.39,45h3.85V48.5h-3.85Zm.34,7.43h3.2V69.55h-3.2Z"/><path class="cls-1" d="M354.26,52.42h3.58L363.3,66l5.32-13.58h3.55l-7.51,17.13h-3.24Z"/><path class="cls-1" d="M377.76,61.57c-.07,3.54,1.4,6.17,4.91,6.17a3.72,3.72,0,0,0,4-3.55h3.21a5.83,5.83,0,0,1-1.47,3.58c-.75.86-2.46,2.29-5.9,2.29-5.39,0-8-3.34-8-8.77,0-3.37.68-6.17,3.38-8A8.22,8.22,0,0,1,382.64,52c7.68,0,7.51,6.79,7.44,9.59Zm9-2.26c0-1.63-.27-5-4.23-5-2.08,0-4.6,1.26-4.67,5Z"/><path class="cls-1" d="M395,55.9c0-1.16-.07-2.35-.17-3.48H398l.07,3.31a4.62,4.62,0,0,1,4.09-3.37,10.29,10.29,0,0,1,2.22-.07v3.14a2.47,2.47,0,0,0-.62-.14,6.07,6.07,0,0,0-.92,0c-3.79,0-4.67,2.26-4.67,5.19v9.11H395Z"/><path class="cls-1" d="M410.57,64.47c0,1.29.65,3.1,3.75,3.1a3.52,3.52,0,0,0,3-1.09,2.66,2.66,0,0,0,.54-1.6c0-1.68-1.19-2-3.75-2.56-3.58-.82-6.58-1.54-6.58-5.12,0-3.14,2.73-5.18,6.68-5.18,2.15,0,5.15.61,6.18,2.65a5.51,5.51,0,0,1,.44,2.5h-3.27c.1-2.6-2.15-2.8-3.31-2.8-.48,0-3.48,0-3.48,2.46,0,1.56,1.53,1.94,2.42,2.18,4.74,1.12,5.76,1.4,6.79,2.35a4.26,4.26,0,0,1,1.29,3.17A5.19,5.19,0,0,1,419,68.87,9.61,9.61,0,0,1,413.88,70c-3.48,0-6.72-1.44-6.68-5.56Z"/><path class="cls-1" d="M425.48,45h3.86V48.5h-3.86Zm.34,7.43H429V69.55h-3.21Z"/><path class="cls-1" d="M432.65,52.36h3V48.78l3.17-1v4.61h3.82v2.35h-3.82V65c0,.85,0,2.28,2.29,2.28a6.87,6.87,0,0,0,1.53-.17v2.49a15.94,15.94,0,0,1-2.66.21c-2.93,0-4.33-.86-4.33-3.65V54.71h-3Z"/><path class="cls-1" d="M454.34,69.65,451.88,76h-3.3l2.59-6.55L444,52.42h3.62L453,65.93l5.46-13.51H462Z"/><path class="cls-1" d="M478.8,52c6.86,0,8.39,5.39,8.39,9,0,5-2.83,9.18-8.66,9.18-5.66,0-8.42-3.92-8.42-8.94C470.11,57,472.08,52,478.8,52Zm-.2,15.76c2.42,0,5.18-1.74,5.18-6.89,0-4.26-2-6.52-5-6.52-2,0-5.35,1.3-5.35,6.66C473.45,64.5,475,67.74,478.6,67.74Z"/><path class="cls-1" d="M500.77,47.31c-.54,0-1.22-.07-1.87-.07-2.59,0-2.59,1.3-2.59,2.49v2.69h4v2.32h-4V69.55h-3.18V54.74h-3.37V52.42h3.37V50.48c0-2.35.14-3.21.72-4.09.72-1.09,2.08-1.88,4.3-1.88a18.94,18.94,0,0,1,2.62.24Z"/><path class="cls-1" d="M516.6,69.55V47.82h-8.25v-2.9h19.88v2.9H520V69.55Z"/><path class="cls-1" d="M529.5,61.57c-.07,3.54,1.4,6.17,4.91,6.17a3.73,3.73,0,0,0,4-3.55h3.2a5.81,5.81,0,0,1-1.46,3.58c-.76.86-2.46,2.29-5.91,2.29-5.38,0-7.94-3.34-7.94-8.77,0-3.37.68-6.17,3.37-8A8.25,8.25,0,0,1,534.38,52c7.67,0,7.5,6.79,7.43,9.59Zm9-2.26c0-1.63-.28-5-4.23-5-2.08,0-4.61,1.26-4.67,5Z"/><path class="cls-1" d="M561.63,69.55H557.4l-4.87-6.86-4.85,6.86h-3.75l6.79-9-6.42-8.16h4.2l4.57,6.45,4.78-6.45h3.78L555,60.78Z"/><path class="cls-1" d="M575.93,69.55a9.21,9.21,0,0,1-.31-2.56,5.55,5.55,0,0,1-5.29,3.1c-3.92,0-6-2.21-6-5a5.64,5.64,0,0,1,3-5,13.38,13.38,0,0,1,5.93-1.12c.82,0,1.33,0,2.32.1,0-2.12,0-3-.61-3.79a3.94,3.94,0,0,0-3-1.12c-3.24,0-3.41,2.21-3.45,2.89h-3.2a5.43,5.43,0,0,1,1.19-3.24c1.3-1.43,3.72-1.84,5.53-1.84,2.49,0,5.15.79,6.07,2.53a5.09,5.09,0,0,1,.58,2.62l-.14,8.19a40.16,40.16,0,0,0,.28,4.3Zm-2.22-8.43c-1.3,0-6.17,0-6.17,3.48,0,1.09.68,3,3.54,3a4.11,4.11,0,0,0,3.65-1.84c.72-1.16.75-2.12.82-4.51A15.91,15.91,0,0,0,573.71,61.12Z"/><path class="cls-1" d="M586.3,64.47c0,1.29.65,3.1,3.75,3.1a3.5,3.5,0,0,0,3-1.09,2.67,2.67,0,0,0,.55-1.6c0-1.68-1.2-2-3.75-2.56-3.59-.82-6.59-1.54-6.59-5.12C583.26,54.06,586,52,590,52c2.15,0,5.15.61,6.17,2.65a5.51,5.51,0,0,1,.44,2.5h-3.27c.1-2.6-2.15-2.8-3.31-2.8-.47,0-3.48,0-3.48,2.46,0,1.56,1.54,1.94,2.43,2.18,4.74,1.12,5.76,1.4,6.78,2.35a4.23,4.23,0,0,1,1.3,3.17,5.22,5.22,0,0,1-2.32,4.34A9.64,9.64,0,0,1,589.61,70c-3.48,0-6.72-1.44-6.69-5.56Z"/><path class="cls-1" d="M621.44,69.55a9.21,9.21,0,0,1-.31-2.56,5.55,5.55,0,0,1-5.29,3.1c-3.92,0-6-2.21-6-5a5.64,5.64,0,0,1,3-5,13.38,13.38,0,0,1,5.93-1.12c.82,0,1.33,0,2.32.1,0-2.12,0-3-.61-3.79a3.94,3.94,0,0,0-3-1.12c-3.24,0-3.41,2.21-3.45,2.89h-3.2A5.43,5.43,0,0,1,612,53.75c1.3-1.43,3.72-1.84,5.53-1.84,2.49,0,5.15.79,6.07,2.53a5.09,5.09,0,0,1,.58,2.62l-.14,8.19a40.16,40.16,0,0,0,.28,4.3Zm-2.22-8.43c-1.3,0-6.17,0-6.17,3.48,0,1.09.68,3,3.54,3a4.11,4.11,0,0,0,3.65-1.84c.72-1.16.75-2.12.82-4.51A15.77,15.77,0,0,0,619.22,61.12Z"/><path class="cls-1" d="M627.34,52.36h3V48.78l3.17-1v4.61h3.82v2.35h-3.82V65c0,.85,0,2.28,2.28,2.28a7,7,0,0,0,1.54-.17v2.49a15.94,15.94,0,0,1-2.66.21c-2.94,0-4.33-.86-4.33-3.65V54.71h-3Z"/><path class="cls-1" d="M653.27,62.35c.07,1.71.27,4.88,5.93,4.88,5.12,0,5.77-3.17,5.77-4.4,0-2.76-2.22-3.31-5.67-4.16-3.75-.92-5.42-1.33-6.68-2.19a5.55,5.55,0,0,1-2.56-4.84c0-5,4.74-7.2,9.38-7.2,1.64,0,4.95.28,6.92,2.42a6.33,6.33,0,0,1,1.51,4.2h-3.55c-.17-3.07-2.76-3.75-5.19-3.75-3.41,0-5.45,1.53-5.45,4,0,2.18,1.43,2.93,4.43,3.65,5.87,1.5,6.52,1.64,7.95,2.59a5.65,5.65,0,0,1,2.45,4.91c0,4.37-3.41,7.68-9.72,7.68-1.87,0-5.69-.31-7.64-2.8a7.69,7.69,0,0,1-1.43-5Z"/><path class="cls-1" d="M683.33,69.55A9.21,9.21,0,0,1,683,67a5.53,5.53,0,0,1-5.28,3.1c-3.93,0-6-2.21-6-5a5.65,5.65,0,0,1,3-5,13.38,13.38,0,0,1,5.93-1.12c.82,0,1.34,0,2.32.1,0-2.12,0-3-.61-3.79a3.94,3.94,0,0,0-3-1.12c-3.24,0-3.41,2.21-3.44,2.89h-3.21a5.5,5.5,0,0,1,1.19-3.24c1.3-1.43,3.72-1.84,5.53-1.84,2.49,0,5.15.79,6.07,2.53a5,5,0,0,1,.58,2.62L686,65.25a39.21,39.21,0,0,0,.27,4.3Zm-2.22-8.43c-1.29,0-6.17,0-6.17,3.48,0,1.09.68,3,3.55,3a4.1,4.1,0,0,0,3.64-1.84c.72-1.16.76-2.12.82-4.51A15.77,15.77,0,0,0,681.11,61.12Z"/><path class="cls-1" d="M692,54.4l0-2h3.2l0,2.77c.37-.72,1.6-3.11,5.49-3.11,1.53,0,6.21.58,6.21,5.84V69.55h-3.28V58.67a3.86,3.86,0,0,0-.92-2.94,4.41,4.41,0,0,0-3-1.16c-2.32,0-4.47,1.68-4.47,5.12v9.86H692Z"/><path class="cls-1" d="M728.16,44.92h3.65l10,24.63h-3.71l-2.67-6.41H724l-2.66,6.41h-3.52Zm-3.1,15.45h9.31L729.84,48.3Z"/><path class="cls-1" d="M745.22,54.4l0-2h3.2l0,2.77c.37-.72,1.6-3.11,5.49-3.11,1.54,0,6.21.58,6.21,5.84V69.55h-3.28V58.67a3.86,3.86,0,0,0-.92-2.94,4.41,4.41,0,0,0-3-1.16c-2.32,0-4.47,1.68-4.47,5.12v9.86h-3.21Z"/><path class="cls-1" d="M763.34,52.36h3V48.78l3.18-1v4.61h3.82v2.35h-3.82V65c0,.85,0,2.28,2.28,2.28a7.06,7.06,0,0,0,1.54-.17v2.49a15.94,15.94,0,0,1-2.66.21c-2.94,0-4.34-.86-4.34-3.65V54.71h-3Z"/><path class="cls-1" d="M784.76,52c6.86,0,8.39,5.39,8.39,9,0,5-2.83,9.18-8.66,9.18-5.66,0-8.43-3.92-8.43-8.94C776.06,57,778,52,784.76,52Zm-.2,15.76c2.42,0,5.18-1.74,5.18-6.89,0-4.26-2-6.52-5-6.52-2,0-5.35,1.3-5.35,6.66C779.41,64.5,780.91,67.74,784.56,67.74Z"/><path class="cls-1" d="M798.27,54.4l0-2h3.2l0,2.77c.37-.72,1.6-3.11,5.49-3.11,1.54,0,6.21.58,6.21,5.84V69.55H809.9V58.67a3.86,3.86,0,0,0-.92-2.94,4.41,4.41,0,0,0-3-1.16c-2.32,0-4.47,1.68-4.47,5.12v9.86h-3.21Z"/><path class="cls-1" d="M818.71,45h3.85V48.5h-3.85Zm.34,7.43h3.21V69.55h-3.21Z"/><path class="cls-1" d="M835.93,52c6.86,0,8.39,5.39,8.39,9,0,5-2.83,9.18-8.66,9.18-5.66,0-8.42-3.92-8.42-8.94C827.24,57,829.21,52,835.93,52Zm-.2,15.76c2.42,0,5.18-1.74,5.18-6.89,0-4.26-2-6.52-5-6.52-2,0-5.35,1.3-5.35,6.66C830.58,64.5,832.08,67.74,835.73,67.74Z"/><path class="cls-1" d="M850.22,51V44.68h-2v-.85h5v.85h-2.09V51Zm4.26-7.18h1.65l1.93,5.91,2-5.91h1.55V51h-.92V44.57L858.43,51h-.89l-2.15-6.44V51h-.91Z"/><path class="cls-1" d="M59,1.79v38c0,8.7-.35,17.31-7.08,23.86-5.65,5.56-14.53,7.53-22.42,7.53s-16.77-2-22.43-7.53C.36,57.13,0,48.52,0,39.82v-38H17.58V37.4c0,8.79.63,18.38,11.93,18.38S41.43,46.19,41.43,37.4V1.79Z"/><path class="cls-1" d="M87.18,69.42H69.6V16.68H55.07V1.79h46.64V16.68H87.18Z"/><path class="cls-1" d="M135.34,19.19a18.47,18.47,0,0,0-11.66-4.48c-3.22,0-7.53,1.88-7.53,5.64,0,3.95,4.75,5.48,7.8,6.46l4.49,1.35c9.42,2.78,16.68,7.53,16.68,18.48,0,6.73-1.61,13.63-7,18.2s-12.38,6.37-19.19,6.37A41.77,41.77,0,0,1,95.16,63.5l7.54-14.18c4.39,3.86,9.59,7,15.6,7,4.12,0,8.52-2.06,8.52-6.81,0-4.93-6.9-6.64-10.67-7.72-11-3.14-18.3-6-18.3-19.1C97.85,9,107.63,0,121.17,0a46.23,46.23,0,0,1,21.17,5.56Z"/><path class="cls-1" d="M160.82,57.67l-4.67,11.75H137.5l26-67.63H182.7l25.47,67.63H189.43L185,57.67Zm12.29-35h-.19l-7.26,21.52h14.62Z"/><path class="cls-1" d="M213.25,59.59a5,5,0,1,1-5.19,5,5.06,5.06,0,0,1,5.15-5Zm-.07,1a4,4,0,0,0,.07,8,3.82,3.82,0,0,0,3.81-4,3.86,3.86,0,0,0-3.85-4Zm-.76,6.58h-1.15v-5a9.57,9.57,0,0,1,1.91-.19,2.9,2.9,0,0,1,1.75.4,1.37,1.37,0,0,1,.48,1.07,1.3,1.3,0,0,1-1,1.19v0A1.49,1.49,0,0,1,215.3,66a3,3,0,0,0,.36,1.22h-1.25A3.77,3.77,0,0,1,214,66c-.08-.54-.39-.79-1-.79h-.55Zm0-2.8H213c.64,0,1.16-.22,1.16-.73s-.33-.77-1.07-.77a2.91,2.91,0,0,0-.64.06Z"/></g></g></svg>